<svg width="15" height="40" viewBox="0 0 15 40" fill="none" xmlns="http://www.w3.org/2000/svg">
<path d="M1 20C3.15085 20.7546 8.76204 21.8111 14 20" stroke="#FAFAFA" stroke-width="1.5"/>
<path d="M1 14C3.15085 14.7546 8.76204 15.8111 14 14" stroke="#FAFAFA" stroke-width="1.5"/>
<path d="M5.23256 4.19922H9.99419C9.99419 4.94121 10.0504 7.18423 11.4302 8.77486C13.093 10.6917 14 12.6085 14 14.0925C14 16.3391 13.8488 21.1044 13.8488 22.1926C13.8488 23.4293 13.3953 24.1713 13.0174 25.4698C12.5569 27.0521 12.5681 27.9633 12.8663 29.4271C13.3198 31.6531 13.5969 34.7653 13.6221 35.2394C13.6221 35.6516 13.6221 37.218 12.564 38.331C11.5179 39.4313 10.0698 38.6814 9.23837 38.2074C8.96124 38.5165 8.2407 39.1472 7.57558 39.1967C6.91047 39.2462 6.08915 38.5577 5.76163 38.2074C5.68605 38.228 5.39884 38.3434 4.85465 38.6402C4.31047 38.937 3.46899 38.8463 3.11628 38.7639C2.73837 38.6814 1.89186 38.0961 1.52907 36.4142C1.07558 34.3119 2.2093 31.4057 2.43605 29.6744C2.66279 27.9431 2.13372 25.7171 1.68023 24.7278C1.31744 23.9363 1.07558 22.7079 1 22.1926V14.0925C1 11.3718 2.88953 9.76419 4.02326 8.21836C4.93023 6.9817 5.20736 5.02366 5.23256 4.19922Z" stroke="#FAFAFA" stroke-width="1.4"/>
<path d="M4.8001 2C4.8001 1.28203 5.38213 0.7 6.1001 0.7H9.1001C9.81807 0.7 10.4001 1.28203 10.4001 2V4.3H4.8001V2Z" stroke="#FAFAFA" stroke-width="1.4"/>
</svg>
