<svg width="18" height="37" viewBox="0 0 18 37" fill="none" xmlns="http://www.w3.org/2000/svg">
<path d="M1.27123 6.29403L2.02731 4.99433C2.38542 4.37873 3.04388 4 3.75607 4H14.3162C15.051 4 15.7266 4.40295 16.0759 5.04946L16.7597 6.3154C16.9174 6.6074 17 6.93406 17 7.26594V32.4155C17 32.7113 16.8684 32.9908 16.6479 33.1878C16.361 33.4442 16.0117 33.7729 15.7957 34.0266C15.5918 34.2659 15.4233 34.6628 15.3079 35.0067C15.2093 35.3008 14.9544 35.5245 14.6452 35.5492C10.8877 35.8493 7.11227 35.8493 3.35476 35.5492L3.23069 35.5393C2.98424 35.5196 2.77062 35.3728 2.67921 35.1431L2.66514 35.1077C2.58181 34.8982 2.48295 34.6495 2.37634 34.4305C2.20346 34.0753 1.73739 33.5672 1.34642 33.1943C1.13243 32.9902 1 32.7113 1 32.4155V7.2997C1 6.94641 1.09359 6.59941 1.27123 6.29403Z" stroke="#FAFAFA" stroke-width="1.5"/>
<path d="M1 32C3.6472 32.7546 10.5533 33.8111 17 32" stroke="#FAFAFA" stroke-width="1.5"/>
<rect x="1.375" y="7.375" width="15.25" height="0.75" rx="0.375" stroke="#FAFAFA" stroke-width="0.75"/>
<path d="M11.7674 1.39735C12.0429 0.939998 12.6361 0.791058 13.0951 1.06399C13.5481 1.33341 13.7034 1.9151 13.4449 2.37445L12.8053 3.51097L10.5003 3.50018L11.7674 1.39735Z" fill="#FAFAFA"/>
<path d="M12.2563 1.72137C12.3753 1.53316 12.6225 1.47391 12.8139 1.58773C13.0068 1.70247 13.0721 1.95075 12.9605 2.14551L12.4626 3.01429L11.4068 3.06471L12.2563 1.72137Z" fill="#4696F3"/>
</svg>
