<svg width="23" height="26" viewBox="0 0 23 26" fill="none" xmlns="http://www.w3.org/2000/svg">
<path fill-rule="evenodd" clip-rule="evenodd" d="M22.6521 25.0517C23.104 24.5998 23.104 23.8671 22.6521 23.4152L19.5912 20.3543L22.6595 17.3014C23.1126 16.8506 23.1144 16.1179 22.6636 15.6649C22.2129 15.2118 21.4802 15.21 21.0271 15.6607L17.9547 18.7178L14.8903 15.6534C14.4384 15.2015 13.7057 15.2015 13.2538 15.6534C12.8018 16.1053 12.8018 16.838 13.2538 17.2899L16.314 20.3502L13.2458 23.403C12.7927 23.8538 12.7909 24.5865 13.2417 25.0395C13.6925 25.4926 14.4252 25.4944 14.8782 25.0437L17.9505 21.9867L21.0156 25.0517C21.4675 25.5037 22.2002 25.5037 22.6521 25.0517Z" fill="#E37E7E"/>
<path d="M3.36024 14.9737C3.36024 12.5604 6.08719 8.10183 8.81413 4.59771C10.8593 7.24284 12.9045 10.4334 13.8181 12.8876C14.6361 12.5331 15.536 12.3286 16.4768 12.2468C14.6907 6.92924 8.81413 0.316406 8.81413 0.316406C8.81413 0.316406 0.633301 9.51984 0.633301 14.9737C0.633301 19.4868 4.30104 23.1545 8.81413 23.1545H9.27771C8.97774 22.2819 8.81413 21.382 8.81413 20.4276C5.80086 20.4276 3.36024 17.987 3.36024 14.9737Z" fill="#E37E7E"/>
</svg>
