<svg width="21" height="25" viewBox="0 0 21 25" fill="none" xmlns="http://www.w3.org/2000/svg">
<path d="M21 18.3099L14.6667 25L11 20.7746L12.5467 19.1408L14.6667 21.3803L19.4533 16.3239L21 18.3099ZM2.66667 15.1408C2.66667 12.6479 5.33333 8.04225 8 4.42253C10 7.15493 12 10.4507 12.8933 12.9859C13.6933 12.6197 14.5733 12.4085 15.4933 12.3239C13.7467 6.83099 8 0 8 0C8 0 0 9.50704 0 15.1408C0 19.8028 3.58667 23.5915 8 23.5915H8.45333C8.16 22.6901 8 21.7606 8 20.7746C5.05333 20.7746 2.66667 18.2535 2.66667 15.1408Z" fill="#4696F3"/>
</svg>
