<svg width="26" height="26" viewBox="0 0 26 26" fill="none" xmlns="http://www.w3.org/2000/svg">
<path d="M14.9104 12.9705L25.6874 2.22236C25.9004 1.97433 26.0117 1.65529 25.999 1.32899C25.9864 1.00268 25.8508 0.693151 25.6192 0.462248C25.3877 0.231344 25.0774 0.0960741 24.7502 0.0834704C24.423 0.0708667 24.1031 0.181858 23.8544 0.394262L13.0774 11.1424L2.30041 0.381297C2.05561 0.137157 1.7236 0 1.37741 0C1.03121 0 0.699201 0.137157 0.454406 0.381297C0.209612 0.625437 0.0720873 0.956562 0.0720873 1.30183C0.0720873 1.64709 0.209612 1.97822 0.454406 2.22236L11.2444 12.9705L0.454406 23.7187C0.31832 23.8349 0.207794 23.978 0.129764 24.1388C0.0517333 24.2997 0.00788409 24.4749 0.000968748 24.6534C-0.00594659 24.832 0.0242205 25.01 0.0895774 25.1764C0.154934 25.3428 0.25407 25.4939 0.380761 25.6203C0.507452 25.7466 0.658964 25.8455 0.825786 25.9107C0.992609 25.9758 1.17114 26.0059 1.35018 25.999C1.52921 25.9921 1.70488 25.9484 1.86617 25.8706C2.02745 25.7928 2.17086 25.6825 2.28741 25.5468L13.0774 14.7986L23.8544 25.5468C24.1031 25.7592 24.423 25.8702 24.7502 25.8576C25.0774 25.845 25.3877 25.7097 25.6192 25.4788C25.8508 25.2479 25.9864 24.9384 25.999 24.6121C26.0117 24.2858 25.9004 23.9667 25.6874 23.7187L14.9104 12.9705Z" fill="#FAFAFA"/>
</svg>
