<svg width="79" height="79" viewBox="0 0 79 79" fill="none" xmlns="http://www.w3.org/2000/svg">
<rect width="79" height="79" rx="6" fill="#11161D"/>
<path d="M59.9553 49.6639L48.468 61.3669L41.8175 53.9756L44.6228 51.1176L48.468 55.035L57.1499 46.19L59.9553 49.6639ZM26.7027 44.1204C26.7027 39.7595 31.5394 31.703 36.3762 25.371C40.0037 30.1508 43.6313 35.916 45.2516 40.3508C46.7026 39.7103 48.2987 39.3407 49.9674 39.1929C46.7993 29.5841 36.3762 17.6348 36.3762 17.6348C36.3762 17.6348 21.866 34.2653 21.866 44.1204C21.866 52.2756 28.3714 58.9031 36.3762 58.9031H37.1984C36.6664 57.3263 36.3762 55.7002 36.3762 53.9756C31.0316 53.9756 26.7027 49.5654 26.7027 44.1204Z" fill="#4696F3"/>
</svg>
