<svg width="112" height="112" viewBox="0 0 112 112" fill="none" xmlns="http://www.w3.org/2000/svg">
<rect width="112" height="112" rx="6" fill="#11161D"/>
<path d="M85 70.4085L68.7143 87L59.2857 76.5211L63.2629 72.4693L68.7143 78.0231L81.0229 65.4834L85 70.4085ZM37.8571 62.5493C37.8571 56.3668 44.7143 44.9448 51.5714 35.9679C56.7143 42.7442 61.8571 50.9177 64.1543 57.2051C66.2114 56.2969 68.4743 55.773 70.84 55.5634C66.3486 41.9408 51.5714 25 51.5714 25C51.5714 25 31 48.5775 31 62.5493C31 74.111 40.2229 83.507 51.5714 83.507H52.7371C51.9829 81.2715 51.5714 78.9662 51.5714 76.5211C43.9943 76.5211 37.8571 70.2687 37.8571 62.5493Z" fill="#4696F3"/>
</svg>
