<svg width="22" height="27" viewBox="0 0 22 27" fill="none" xmlns="http://www.w3.org/2000/svg">
<path d="M1.11047 3.24533C0.964389 1.91355 2.00729 0.75 3.34705 0.75H18.6529C19.9927 0.75 21.0356 1.91355 20.8895 3.24532L18.5861 24.2453C18.461 25.3862 17.4972 26.25 16.3495 26.25H5.65047C4.50277 26.25 3.53902 25.3862 3.41389 24.2453L1.11047 3.24533Z" stroke="#FAFAFA" stroke-width="1.5"/>
<path d="M2.11124 10.3042C3.35737 9.64278 4.88797 9.25446 6.4733 9.19749C8.05863 9.14051 9.61316 9.41796 10.9035 9.98819C12.1939 10.5584 13.7485 10.8359 15.3338 10.7789C16.9191 10.7219 18.4497 10.3336 19.6959 9.67223" stroke="#FAFAFA" stroke-width="1.5" stroke-linecap="round" stroke-linejoin="round"/>
<circle cx="7.5" cy="15.5" r="1.5" fill="#FAFAFA"/>
<circle cx="14.5" cy="19.5" r="1.5" fill="#FAFAFA"/>
</svg>
