<svg width="110" height="42" viewBox="0 0 110 42" fill="none" xmlns="http://www.w3.org/2000/svg">
<path d="M0.262323 41.7103V40.8897C1.04929 41.1471 1.89922 41.2759 2.8121 41.2759C4.10273 41.2759 4.74804 40.8414 4.74804 39.9724C4.74804 39.2322 4.27237 38.8621 3.32101 38.8621H2.35566C0.78522 38.8621 0 38.2345 0 36.9793C0 35.6598 1.00557 35 3.01671 35C3.89112 35 4.70432 35.0966 5.45632 35.2897V36.1103C4.70432 35.8529 3.89112 35.7241 3.01671 35.7241C1.65263 35.7241 0.970595 36.1425 0.970595 36.9793C0.970595 37.7195 1.43228 38.0897 2.35566 38.0897H3.32101C4.91943 38.0897 5.71864 38.7172 5.71864 39.9724C5.71864 41.3241 4.74979 42 2.8121 42C1.89922 42 1.04929 41.9034 0.262323 41.7103Z" fill="#FAFAFA"/>
<path d="M14.0246 35.0483V35.7724H11.6637V41.9517H10.6931V35.7724H8.33222V35.0483H14.0246Z" fill="#FAFAFA"/>
<path d="M17.2573 41.9517H16.25L19.4346 35.0483H20.5101L23.7104 41.9517H22.6349L21.6643 39.7793H19.1827L19.4503 39.0552H21.339L19.9382 35.9269L17.2573 41.9517Z" fill="#FAFAFA"/>
<path d="M25.7994 35.0483H26.8749L29.0364 38.6545L31.2294 35.0483H32.3574L29.4929 39.5379V41.9517H28.5223V39.5379L25.7994 35.0483Z" fill="#FAFAFA"/>
<path d="M39.6569 41.9517V35.0483H40.6275V38.0897H45.0608V35.0483H46.0314V41.9517H45.0608V38.8138H40.6275V41.9517H39.6569Z" fill="#FAFAFA"/>
<path d="M48.8863 35.0483H49.9618L52.1234 38.6545L54.3164 35.0483H55.4444L52.5798 39.5379V41.9517H51.6092V39.5379L48.8863 35.0483Z" fill="#FAFAFA"/>
<path d="M61.0222 41.2276C62.8584 41.2276 63.7766 40.2556 63.7766 38.3117C63.7766 36.6189 62.8584 35.7724 61.0222 35.7724H59.2646V41.2276H61.0222ZM58.294 41.9517V35.0483H61.0222C63.5055 35.0483 64.7472 36.1361 64.7472 38.3117C64.7472 40.7384 63.5055 41.9517 61.0222 41.9517H58.294Z" fill="#FAFAFA"/>
<path d="M67.9903 41.9517V35.0483H71.1907C72.6177 35.0483 73.3312 35.6002 73.3312 36.7041C73.3312 37.6021 72.6334 38.2667 71.2379 38.6979L73.8139 41.9517H72.5338L70.1466 38.8476V38.2634C71.5807 38.0543 72.2977 37.5474 72.2977 36.7428C72.2977 36.1055 71.8989 35.7869 71.1015 35.7869H68.9609V41.9517H67.9903Z" fill="#FAFAFA"/>
<path d="M76.9154 41.9517H75.9081L79.0927 35.0483H80.1682L83.3685 41.9517H82.293L81.3224 39.7793H78.8408L79.1084 39.0552H80.9971L79.5963 35.9269L76.9154 41.9517Z" fill="#FAFAFA"/>
<path d="M91.281 35.0483V35.7724H88.9201V41.9517H87.9495V35.7724H85.5886V35.0483H91.281Z" fill="#FAFAFA"/>
<path d="M99.1725 35.0483V35.7724H95.2377V38.0897H98.9889V38.8138H95.2377V41.2276H99.2512V41.9517H94.2671V35.0483H99.1725Z" fill="#FAFAFA"/>
<path d="M105.275 41.2276C107.111 41.2276 108.029 40.2556 108.029 38.3117C108.029 36.6189 107.111 35.7724 105.275 35.7724H103.517V41.2276H105.275ZM102.547 41.9517V35.0483H105.275C107.758 35.0483 109 36.1361 109 38.3117C109 40.7384 107.758 41.9517 105.275 41.9517H102.547Z" fill="#FAFAFA"/>
<path d="M0 26.8138V0.186207H4.88193V11.1724H17.8697V0.186207H22.7516V26.8138H17.8697V15.4552H4.88193V26.8138H0Z" fill="#FAFAFA"/>
<path d="M27.3756 26.8138V23.0897C36.157 16.92 40.5476 11.8303 40.5476 7.82069C40.5476 5.46207 38.951 4.28276 35.7578 4.28276C33.0559 4.28276 30.5075 4.96552 28.1125 6.33103V1.86207C30.5075 0.62069 33.0559 0 35.7578 0C42.2057 0 45.4296 2.6069 45.4296 7.82069C45.4296 12.4138 41.9109 17.3172 34.8736 22.531H45.4296V26.8138H27.3756Z" fill="#FAFAFA"/>
<path d="M54.4565 7.26207V11.8241H49.5746V7.26207H54.4565ZM54.4565 22.2517V26.8138H49.5746V22.2517H54.4565Z" fill="#FAFAFA"/>
<path d="M80.0636 25.5848C77.9389 26.5283 75.28 27 72.0868 27C62.7896 27 58.141 22.3759 58.141 13.1276C58.141 4.37586 62.8694 0 72.3262 0C75.2124 0 77.7915 0.434483 80.0636 1.30345V5.77241C77.7915 4.77931 75.3352 4.28276 72.6947 4.28276C66.3697 4.28276 63.2072 7.23103 63.2072 13.1276C63.2072 19.5207 66.1916 22.7172 72.1604 22.7172C73.0447 22.7172 74.0518 22.5683 75.1817 22.2703V14.5241H80.0636V25.5848Z" fill="#FAFAFA"/>
<path d="M88.8143 13.4255C88.8143 19.62 91.5346 22.7172 96.9754 22.7172C102.281 22.7172 104.934 19.62 104.934 13.4255C104.934 7.33035 102.281 4.28276 96.9754 4.28276C91.5346 4.28276 88.8143 7.33035 88.8143 13.4255ZM83.7481 13.5372C83.7481 4.51241 88.1572 0 96.9754 0C105.658 0 110 4.51241 110 13.5372C110 22.5124 105.658 27 96.9754 27C88.5502 27 84.1411 22.5124 83.7481 13.5372Z" fill="#FAFAFA"/>
</svg>
