<svg width="46" height="46" viewBox="0 0 46 46" fill="none" xmlns="http://www.w3.org/2000/svg">
<mask id="path-1-inside-1_268_5577" fill="white">
<path d="M23 2.80934e-06C28.0631 2.58802e-06 32.9847 1.67066 37.0015 4.75287C41.0183 7.83509 43.9059 12.1566 45.2163 17.0472C46.5267 21.9377 46.1868 27.124 44.2492 31.8017C42.3117 36.4794 38.8848 40.387 34.5 42.9186C30.1152 45.4501 25.0177 46.4641 19.9979 45.8032C14.9781 45.1424 10.3167 42.8436 6.73654 39.2635C3.1564 35.6833 0.857634 31.0219 0.196768 26.0021C-0.464099 20.9823 0.54987 15.8848 3.08141 11.5L6.66237 13.5675C4.58594 17.1639 3.75427 21.3451 4.29632 25.4624C4.83838 29.5797 6.72387 33.4031 9.66038 36.3396C12.5969 39.2761 16.4203 41.1616 20.5376 41.7037C24.6549 42.2457 28.8361 41.4141 32.4325 39.3376C36.029 37.2612 38.8398 34.0561 40.429 30.2193C42.0183 26.3826 42.2971 22.1287 41.2223 18.1174C40.1474 14.106 37.779 10.5614 34.4843 8.03334C31.1896 5.50524 27.1528 4.13493 23 4.13493L23 2.80934e-06Z"/>
</mask>
<path d="M23 2.80934e-06C28.0631 2.58802e-06 32.9847 1.67066 37.0015 4.75287C41.0183 7.83509 43.9059 12.1566 45.2163 17.0472C46.5267 21.9377 46.1868 27.124 44.2492 31.8017C42.3117 36.4794 38.8848 40.387 34.5 42.9186C30.1152 45.4501 25.0177 46.4641 19.9979 45.8032C14.9781 45.1424 10.3167 42.8436 6.73654 39.2635C3.1564 35.6833 0.857634 31.0219 0.196768 26.0021C-0.464099 20.9823 0.54987 15.8848 3.08141 11.5L6.66237 13.5675C4.58594 17.1639 3.75427 21.3451 4.29632 25.4624C4.83838 29.5797 6.72387 33.4031 9.66038 36.3396C12.5969 39.2761 16.4203 41.1616 20.5376 41.7037C24.6549 42.2457 28.8361 41.4141 32.4325 39.3376C36.029 37.2612 38.8398 34.0561 40.429 30.2193C42.0183 26.3826 42.2971 22.1287 41.2223 18.1174C40.1474 14.106 37.779 10.5614 34.4843 8.03334C31.1896 5.50524 27.1528 4.13493 23 4.13493L23 2.80934e-06Z" fill="#FAFAFA" stroke="#FAFAFA" stroke-width="6" mask="url(#path-1-inside-1_268_5577)"/>
<path d="M4.11885 24.8902C6.79603 23.4632 10.0836 22.6276 13.4881 22.5091C16.8925 22.3905 20.2303 22.9952 23.0003 24.2326C25.7702 25.4699 29.108 26.0746 32.5124 25.9561C35.9169 25.8375 39.2045 25.002 41.8817 23.5749" stroke="#FAFAFA" stroke-width="4" stroke-linecap="round" stroke-linejoin="round"/>
<circle cx="14.1909" cy="4.40384" r="2.44681" fill="#FAFAFA"/>
<circle cx="20.0642" cy="11.2546" r="3.42553" fill="#FAFAFA"/>
<circle cx="10.766" cy="10.767" r="1.95745" fill="#FAFAFA"/>
</svg>
