<svg width="30" height="30" viewBox="0 0 24 24" fill="none" xmlns="http://www.w3.org/2000/svg">
<path d="M1.64977 1.64977H14.848V9.73366H16.4977V1.64977C16.4977 1.21223 16.3239 0.7926 16.0145 0.483207C15.7051 0.173815 15.2855 0 14.848 0H1.64977C1.21223 0 0.7926 0.173815 0.483207 0.483207C0.173815 0.7926 0 1.21223 0 1.64977V21.4471C0 21.8846 0.173815 22.3042 0.483207 22.6136C0.7926 22.923 1.21223 23.0968 1.64977 23.0968H14.848C15.2855 23.0968 15.7051 22.923 16.0145 22.6136C16.3239 22.3042 16.4977 21.8846 16.4977 21.4471H1.64977V1.64977Z" fill="#FAFAFA"/>
<path d="M19.1043 10.9542C18.9465 10.8191 18.7435 10.7485 18.5359 10.7565C18.3283 10.7645 18.1314 10.8506 17.9845 10.9975C17.8376 11.1444 17.7515 11.3413 17.7435 11.5489C17.7355 11.7565 17.8061 11.9595 17.9412 12.1173L20.7293 14.8477H8.76849C8.54972 14.8477 8.3399 14.9346 8.18521 15.0893C8.03051 15.244 7.9436 15.4538 7.9436 15.6726C7.9436 15.8913 8.03051 16.1011 8.18521 16.2558C8.3399 16.4105 8.54972 16.4974 8.76849 16.4974H20.7293L17.9412 19.3516C17.8549 19.4255 17.7847 19.5165 17.7352 19.6188C17.6857 19.7212 17.6579 19.8327 17.6535 19.9463C17.6491 20.0599 17.6683 20.1731 17.7097 20.279C17.7512 20.3848 17.8141 20.481 17.8945 20.5614C17.9749 20.6418 18.071 20.7047 18.1769 20.7461C18.2827 20.7876 18.396 20.8068 18.5096 20.8024C18.6232 20.798 18.7347 20.7702 18.837 20.7206C18.9394 20.6711 19.0304 20.601 19.1043 20.5146L23.9217 15.7303L19.1043 10.9542Z" fill="#FAFAFA"/>
</svg>
