<svg width="31" height="25" viewBox="0 0 31 25" fill="none" xmlns="http://www.w3.org/2000/svg">
<path d="M1 5.92857C5.00039 5.92857 8.00028 1 8.00028 1C8.00028 1 11.0002 5.92857 15.0006 5.92857C18.9993 5.92857 22.9997 1 22.9997 1C22.9997 1 27.0001 5.92857 30 5.92857M1 14.9643C5.00039 14.9643 8.00028 10.0357 8.00028 10.0357C8.00028 10.0357 11.0002 14.9643 15.0006 14.9643C18.9993 14.9643 22.9997 10.0357 22.9997 10.0357C22.9997 10.0357 27.0001 14.9643 30 14.9643M1 24C5.00039 24 8.00028 19.0714 8.00028 19.0714C8.00028 19.0714 11.0002 24 15.0006 24C18.9993 24 22.9997 19.0714 22.9997 19.0714C22.9997 19.0714 27.0001 24 30 24" stroke="#FAFAFA" stroke-width="1.5" stroke-linecap="round" stroke-linejoin="round"/>
</svg>
