<svg width="30" height="30" viewBox="0 0 26 26" xmlns="http://www.w3.org/2000/svg">
<path d="M13 6.40304C11.6952 6.40304 10.4198 6.78994 9.33492 7.51483C8.25006 8.23971 7.40451 9.27002 6.9052 10.4755C6.4059 11.6809 6.27525 13.0073 6.5298 14.287C6.78434 15.5667 7.41264 16.7422 8.33524 17.6648C9.25785 18.5874 10.4333 19.2157 11.713 19.4702C12.9927 19.7247 14.3191 19.5941 15.5245 19.0948C16.73 18.5955 17.7603 17.7499 18.4852 16.6651C19.2101 15.5802 19.597 14.3048 19.597 13C19.597 11.2504 18.9019 9.57241 17.6648 8.33524C16.4276 7.09807 14.7496 6.40304 13 6.40304ZM13 18.131C11.9852 18.131 10.9932 17.83 10.1494 17.2662C9.3056 16.7024 8.64795 15.9011 8.2596 14.9635C7.87125 14.026 7.76964 12.9943 7.96762 11.999C8.1656 11.0037 8.65428 10.0894 9.37186 9.37186C10.0894 8.65428 11.0037 8.1656 11.999 7.96762C12.9943 7.76964 14.026 7.87125 14.9635 8.2596C15.9011 8.64795 16.7024 9.3056 17.2662 10.1494C17.83 10.9932 18.131 11.9852 18.131 13C18.131 14.3608 17.5904 15.6659 16.6281 16.6281C15.6659 17.5904 14.3608 18.131 13 18.131ZM25.8519 15.8831L23.9827 13.3909C23.9949 13.1222 23.9827 12.8168 23.9827 12.6091L25.8519 10.1169C25.9195 10.0274 25.9656 9.92359 25.9868 9.81346C26.008 9.70332 26.0036 9.5898 25.974 9.48162C25.6723 8.37452 25.2288 7.31103 24.6546 6.31752C24.5998 6.22122 24.5242 6.13836 24.4334 6.07496C24.3425 6.01156 24.2386 5.96922 24.1293 5.95103L21.0507 5.51123C20.8675 5.31576 20.6842 5.13251 20.4888 4.94927L20.049 1.87068C20.033 1.7622 19.9928 1.65868 19.9315 1.56777C19.8702 1.47685 19.7893 1.40085 19.6947 1.34537C18.6948 0.775339 17.6278 0.332127 16.5184 0.025978C16.4102 -0.00361532 16.2967 -0.00799041 16.1865 0.0131893C16.0764 0.0343689 15.9726 0.0805385 15.8831 0.148144L13.4031 2.01728C13.1344 2.00914 12.8656 2.00914 12.5969 2.01728L10.1169 0.148144C10.0274 0.0805385 9.92359 0.0343689 9.81346 0.0131893C9.70332 -0.00799041 9.5898 -0.00361532 9.48162 0.025978C8.37452 0.327737 7.31103 0.771201 6.31752 1.34537C6.22122 1.40018 6.13836 1.47577 6.07496 1.56664C6.01156 1.65752 5.96922 1.76138 5.95103 1.87068L5.51123 4.94927C5.31576 5.13251 5.13251 5.31576 4.94927 5.51123L1.87068 5.95103C1.7622 5.96702 1.65868 6.00716 1.56777 6.06847C1.47685 6.12979 1.40085 6.21072 1.34537 6.30531C0.775339 7.30516 0.332127 8.37215 0.025978 9.48162C-0.00361532 9.5898 -0.00799041 9.70332 0.0131893 9.81346C0.0343689 9.92359 0.0805385 10.0274 0.148144 10.1169L2.01728 12.6091C2.00507 12.8778 2.01728 13.1832 2.01728 13.3909L0.148144 15.8831C0.0805385 15.9726 0.0343689 16.0764 0.0131893 16.1865C-0.00799041 16.2967 -0.00361532 16.4102 0.025978 16.5184C0.327737 17.6255 0.771201 18.689 1.34537 19.6825C1.398 19.7805 1.47299 19.8648 1.56425 19.9285C1.65552 19.9921 1.76049 20.0334 1.87068 20.049L4.94927 20.4888L5.51123 21.0507L5.95103 24.1293C5.96922 24.2386 6.01156 24.3425 6.07496 24.4334C6.13836 24.5242 6.22122 24.5998 6.31752 24.6546C7.3121 25.2266 8.37531 25.67 9.48162 25.974L9.67709 25.9985C9.83569 25.9985 9.99001 25.947 10.1169 25.8519L12.5969 23.9827H13.4031L15.8831 25.8519C15.9726 25.9195 16.0764 25.9656 16.1865 25.9868C16.2967 26.008 16.4102 26.0036 16.5184 25.974C17.6286 25.6701 18.6959 25.2267 19.6947 24.6546C19.7893 24.5991 19.8702 24.5231 19.9315 24.4322C19.9928 24.3413 20.033 24.2378 20.049 24.1293L20.4888 21.0507C20.6842 20.8675 20.8919 20.6476 21.0385 20.4888L24.1293 20.049C24.2378 20.033 24.3413 19.9928 24.4322 19.9315C24.5231 19.8702 24.5991 19.7893 24.6546 19.6947C25.2247 18.6948 25.6679 17.6278 25.974 16.5184C26.0036 16.4102 26.008 16.2967 25.9868 16.1865C25.9656 16.0764 25.9195 15.9726 25.8519 15.8831ZM23.5551 18.6441L20.5865 19.0716C20.4213 19.0996 20.2682 19.1762 20.1467 19.2915C20.0001 19.4626 19.5481 19.9268 19.316 20.1345C19.1844 20.2521 19.0979 20.412 19.0716 20.5865L18.6441 23.5551C17.9526 23.9312 17.2238 24.2341 16.4695 24.4592L14.0628 22.6511C13.9244 22.5524 13.756 22.5049 13.5864 22.5167H12.4136C12.244 22.5049 12.0756 22.5524 11.9372 22.6511L9.53049 24.4592C8.77432 24.2395 8.04497 23.9363 7.35593 23.5551L6.92835 20.5865C6.90206 20.412 6.81565 20.2521 6.68402 20.1345C6.39316 19.8803 6.11971 19.6068 5.86551 19.316C5.74791 19.1844 5.58803 19.0979 5.4135 19.0716L2.44486 18.6441C2.06885 17.9526 1.76587 17.2238 1.54084 16.4695L3.34889 14.0628C3.44592 13.9276 3.49727 13.765 3.49549 13.5986C3.48327 13.3787 3.47106 12.7312 3.48327 12.4136C3.49509 12.244 3.44758 12.0756 3.34889 11.9372L1.54084 9.53049C1.7605 8.77432 2.06372 8.04497 2.44486 7.35593L5.4135 6.92835C5.58803 6.90206 5.74791 6.81565 5.86551 6.68402C6.11971 6.39316 6.39316 6.11971 6.68402 5.86551C6.81565 5.74791 6.90206 5.58803 6.92835 5.4135L7.35593 2.44486C8.04744 2.06885 8.77622 1.76587 9.53049 1.54084L11.9372 3.34889C12.0756 3.44758 12.244 3.49509 12.4136 3.48327C12.8045 3.47513 13.1955 3.47513 13.5864 3.48327C13.756 3.49509 13.9244 3.44758 14.0628 3.34889L16.4695 1.54084C17.2257 1.7605 17.955 2.06372 18.6441 2.44486L19.0716 5.4135C19.0979 5.58803 19.1844 5.74791 19.316 5.86551C19.6068 6.11971 19.8803 6.39316 20.1345 6.68402C20.2521 6.81565 20.412 6.90206 20.5865 6.92835L23.5551 7.35593C23.9312 8.04744 24.2341 8.77622 24.4592 9.53049L22.6511 11.9372C22.5541 12.0724 22.5027 12.235 22.5045 12.4014C22.5167 12.6213 22.5289 13.2688 22.5167 13.5864C22.5049 13.756 22.5524 13.9244 22.6511 14.0628L24.4592 16.4695C24.2395 17.2257 23.9363 17.955 23.5551 18.6441Z" fill="#FAFAFA"/>
</svg>
