<svg width="21" height="21" viewBox="0 0 21 21" fill="none" xmlns="http://www.w3.org/2000/svg">
<path fill-rule="evenodd" clip-rule="evenodd" d="M15.6474 1.75C15.8934 1.75011 16.1366 1.80207 16.3612 1.90251C16.5857 2.00294 16.7866 2.14959 16.9506 2.33289C17.1147 2.51618 17.2383 2.732 17.3133 2.96627C17.3883 3.20055 17.4131 3.448 17.386 3.6925L15.8312 17.6925C15.7838 18.1207 15.5801 18.5164 15.2591 18.8038C14.9382 19.0911 14.5225 19.25 14.0917 19.25H6.90792C6.4771 19.25 6.06141 19.0911 5.74045 18.8038C5.41949 18.5164 5.21581 18.1207 5.16842 17.6925L3.61267 3.6925C3.5856 3.44793 3.61042 3.2004 3.68549 2.96607C3.76057 2.73173 3.88422 2.51587 4.04837 2.33256C4.21252 2.14925 4.41349 2.00262 4.63814 1.90224C4.8628 1.80186 5.10611 1.74998 5.35217 1.75H15.6474ZM15.6474 3.5H5.35217L5.72405 6.84512C6.03818 6.78526 6.3559 6.7461 6.67517 6.72788C7.7243 6.66663 9.17417 6.79263 10.8445 7.50838C12.2367 8.10513 13.4118 8.19788 14.222 8.14975C14.533 8.13322 14.8419 8.0893 15.1452 8.0185L15.6474 3.5ZM14.943 9.835C14.7575 9.86125 14.5502 9.884 14.3244 9.89625C13.2753 9.95838 11.8254 9.83237 10.155 9.1175C8.76292 8.51987 7.58779 8.42713 6.77755 8.47525C6.48844 8.49118 6.2011 8.53039 5.9183 8.5925L6.90792 17.5H14.0917L14.943 9.835ZM9.6248 11.375C9.6248 11.6071 9.53261 11.8296 9.36851 11.9937C9.20442 12.1578 8.98186 12.25 8.7498 12.25C8.51773 12.25 8.29517 12.1578 8.13108 11.9937C7.96698 11.8296 7.8748 11.6071 7.8748 11.375C7.8748 11.1429 7.96698 10.9204 8.13108 10.7563C8.29517 10.5922 8.51773 10.5 8.7498 10.5C8.98186 10.5 9.20442 10.5922 9.36851 10.7563C9.53261 10.9204 9.6248 11.1429 9.6248 11.375ZM11.3748 14.875C11.6069 14.875 11.8294 14.7828 11.9935 14.6187C12.1576 14.4546 12.2498 14.2321 12.2498 14C12.2498 13.7679 12.1576 13.5454 11.9935 13.3813C11.8294 13.2172 11.6069 13.125 11.3748 13.125C11.1427 13.125 10.9202 13.2172 10.7561 13.3813C10.592 13.5454 10.4998 13.7679 10.4998 14C10.4998 14.2321 10.592 14.4546 10.7561 14.6187C10.9202 14.7828 11.1427 14.875 11.3748 14.875Z" fill="#4696F3"/>
</svg>
