<svg width="15" height="20" viewBox="0 0 15 20" fill="none" xmlns="http://www.w3.org/2000/svg">
<mask id="mask0_398_462" style="mask-type:alpha" maskUnits="userSpaceOnUse" x="0" y="0" width="15" height="20">
<path fill-rule="evenodd" clip-rule="evenodd" d="M8.02179 0.175995L7.5 0.909091L6.97821 0.175995C7.28879 -0.0586652 7.71121 -0.0586652 8.02179 0.175995ZM7.5 2.07125C7.36969 2.18346 7.21893 2.31654 7.0522 2.46924C6.45591 3.01533 5.66147 3.80677 4.86902 4.78653C3.26484 6.76988 1.76471 9.40596 1.76471 12.2727C1.76471 15.5361 4.3326 18.1818 7.5 18.1818C10.6674 18.1818 13.2353 15.5361 13.2353 12.2727C13.2353 9.40596 11.7352 6.76988 10.131 4.78653C9.33853 3.80677 8.54409 3.01533 7.9478 2.46924C7.78107 2.31654 7.63031 2.18346 7.5 2.07125ZM6.97771 0.176372C6.97797 0.176174 6.97821 0.175995 7.5 0.909091C8.02179 0.175995 8.02203 0.176174 8.02229 0.176372L8.02294 0.176864L8.02469 0.178194L8.03 0.182233L8.04767 0.195793C8.06253 0.207255 8.08351 0.223548 8.11019 0.244562C8.16354 0.286584 8.23975 0.34752 8.33555 0.426483C8.52707 0.584343 8.79737 0.814648 9.12021 1.11031C9.76474 1.70058 10.6247 2.55686 11.4867 3.62256C13.1913 5.73012 15 8.77586 15 12.2727C15 16.5403 11.642 20 7.5 20C3.35798 20 0 16.5403 0 12.2727C0 8.77586 1.80869 5.73012 3.51333 3.62256C4.37529 2.55686 5.23526 1.70058 5.87979 1.11031C6.20263 0.814648 6.47293 0.584343 6.66445 0.426483C6.76025 0.34752 6.83646 0.286584 6.88981 0.244562C6.91649 0.223548 6.93747 0.207255 6.95233 0.195793L6.97 0.182233L6.97531 0.178194L6.97706 0.176864L6.97771 0.176372Z" fill="white"/>
<path d="M1.36377 12.9365C1.36377 16.838 4.11122 20.0009 7.50013 20.0009C10.889 20.0009 13.6365 16.838 13.6365 12.9365C13.6365 12.9365 9.95468 14.3494 7.50013 12.9365C5.04559 11.5237 1.36377 12.9365 1.36377 12.9365Z" fill="white"/>
<path fill-rule="evenodd" clip-rule="evenodd" d="M3.08909 10.8712C4.46503 10.6942 6.33385 10.6678 7.8946 11.4708C8.98091 12.0297 10.4209 12.0561 11.692 11.8926C12.3105 11.8131 12.8538 11.6934 13.2419 11.5935C13.4354 11.5438 13.5887 11.4993 13.6919 11.468C13.7434 11.4523 13.7822 11.4399 13.8071 11.4319C13.8196 11.4278 13.8286 11.4249 13.8339 11.4231L13.8386 11.4215C13.8387 11.4215 13.8392 11.4213 13.8393 11.4213C14.1082 11.3293 14.4037 11.3758 14.6336 11.5463C14.8637 11.7169 15 11.991 15 12.2828C15 16.545 11.642 20.0003 7.5 20.0003C3.35798 20.0003 0 16.545 0 12.2828C0 11.892 0.243027 11.5451 0.603328 11.4215L0.882353 12.2828C0.603328 11.4215 0.603548 11.4214 0.603783 11.4213L0.605698 11.4207L0.609527 11.4194L0.621505 11.4154C0.631389 11.4121 0.64505 11.4075 0.662324 11.4019C0.696866 11.3907 0.745902 11.3752 0.808123 11.3562C0.932488 11.3184 1.10999 11.2671 1.33012 11.2105C1.76919 11.0975 2.384 10.9619 3.08909 10.8712ZM1.80216 12.9609C2.12902 15.9008 4.55545 18.1844 7.5 18.1844C10.2667 18.1844 12.5759 16.1684 13.116 13.4862C12.7645 13.5622 12.3557 13.6373 11.9109 13.6945C10.535 13.8715 8.66615 13.8979 7.1054 13.0949C6.01909 12.536 4.57909 12.5096 3.30797 12.673C2.71257 12.7496 2.18685 12.8634 1.80216 12.9609Z" fill="white"/>
</mask>
<g mask="url(#mask0_398_462)">
<path d="M-2.72705 -1.53906H17.7275V21.5379H-2.72705V-1.53906Z" fill="#4696F3"/>
</g>
</svg>
